<?xml version="1.0" encoding="UTF-8" standalone="no"?>
<!-- Created with Inkscape (http://www.inkscape.org/) -->
<svg
   xmlns:dc="http://purl.org/dc/elements/1.1/"
   xmlns:cc="http://creativecommons.org/ns#"
   xmlns:rdf="http://www.w3.org/1999/02/22-rdf-syntax-ns#"
   xmlns:svg="http://www.w3.org/2000/svg"
   xmlns="http://www.w3.org/2000/svg"
   xmlns:xlink="http://www.w3.org/1999/xlink"
   xmlns:sodipodi="http://sodipodi.sourceforge.net/DTD/sodipodi-0.dtd"
   xmlns:inkscape="http://www.inkscape.org/namespaces/inkscape"
   id="svg2"
   sodipodi:version="0.32"
   inkscape:version="0.46"
   width="1280"
   height="896"
   version="1.0"
   sodipodi:docname="future_track_data.svg"
   inkscape:output_extension="org.inkscape.output.svg.inkscape">
  <metadata
     id="metadata7">
    <rdf:RDF>
      <cc:Work
         rdf:about="">
        <dc:format>image/svg+xml</dc:format>
        <dc:type
           rdf:resource="http://purl.org/dc/dcmitype/StillImage" />
      </cc:Work>
    </rdf:RDF>
  </metadata>
  <defs
     id="defs5">
    <inkscape:perspective
       sodipodi:type="inkscape:persp3d"
       inkscape:vp_x="0 : 526.18109 : 1"
       inkscape:vp_y="0 : 1000 : 0"
       inkscape:vp_z="744.09448 : 526.18109 : 1"
       inkscape:persp3d-origin="372.04724 : 350.78739 : 1"
       id="perspective9" />
  </defs>
  <sodipodi:namedview
     inkscape:window-height="720"
     inkscape:window-width="1024"
     inkscape:pageshadow="2"
     inkscape:pageopacity="0.0"
     guidetolerance="10.0"
     gridtolerance="10.0"
     objecttolerance="10.0"
     borderopacity="1.0"
     bordercolor="#666666"
     pagecolor="#ffffff"
     id="base"
     showgrid="true"
     inkscape:zoom="1.2219689"
     inkscape:cx="336.06029"
     inkscape:cy="597.61778"
     inkscape:window-x="0"
     inkscape:window-y="27"
     inkscape:current-layer="layer2">
    <inkscape:grid
       type="xygrid"
       id="grid2389"
       visible="true"
       enabled="true"
       color="#ffffff"
       opacity="0.28235294"
       empcolor="#ffffff"
       empopacity="0.76470588"
       spacingx="8px"
       spacingy="8px"
       empspacing="8" />
  </sodipodi:namedview>
  <g
     inkscape:groupmode="layer"
     id="layer1"
     inkscape:label="background"
     sodipodi:insensitive="true">
    <image
       xlink:href="future_track.png"
       sodipodi:absref="future_track.png"
       width="1280"
       height="896"
       id="image11"
       x="0"
       y="0"
       style="stroke:#000000;stroke-opacity:1" />
  </g>
  <g
     inkscape:groupmode="layer"
     id="layer2"
     inkscape:label="lua.obstacle">
    <path
       style="fill:#7f7fff;fill-opacity:0.49803922;fill-rule:evenodd;stroke:#000000;stroke-width:1px;stroke-linecap:butt;stroke-linejoin:miter;stroke-opacity:1"
       d="M 64,768 L 1216,768 L 1216,896 L 64,896 L 64,768 z"
       id="path2391"
       sodipodi:nodetypes="ccccc" />
    <path
       style="fill:#7f7fff;fill-opacity:0.49803922;fill-rule:evenodd;stroke:#000000;stroke-width:1px;stroke-linecap:butt;stroke-linejoin:miter;stroke-opacity:1"
       d="M 224,832 L 64,672 L 0,672 L 0,896 L 224,896 L 224,832 z"
       id="path3170"
       sodipodi:nodetypes="cccccc" />
    <path
       style="fill:#7f7fff;fill-opacity:0.49803922;stroke:#000000;stroke-opacity:1"
       d="M 128,832 L 0,832 L 0,384 L 128,384 L 128,832 z"
       id="path3172"
       sodipodi:nodetypes="ccccc" />
    <path
       style="fill:#7f7fff;fill-opacity:0.49803922;stroke:#000000;stroke-opacity:1"
       d="M 96,640 L 192,448 L 192,64 L 0,64 L 0,640 L 96,640 z"
       id="path3174"
       sodipodi:nodetypes="cccccc" />
    <path
       style="fill:#7f7fff;fill-opacity:0.49803922;stroke:#000000;stroke-opacity:1"
       d="M 256,96 L 160,192 L 0,192 L 0,0 L 256,0 L 256,96 z"
       id="path3176"
       sodipodi:nodetypes="cccccc" />
    <path
       style="fill:#7f7fff;fill-opacity:0.49803922;stroke:#000000;stroke-opacity:1"
       d="M 128,128 L 1216,128 L 1216,0 L 128,0 L 128,128 z"
       id="path3178"
       sodipodi:nodetypes="ccccc" />
    <path
       style="fill:#7f7fff;fill-opacity:0.49803922;stroke:#000000;stroke-opacity:1"
       d="M 1088,96 L 1184,192 L 1280,192 L 1280,0 L 1088,0 L 1088,96 z"
       id="path3180"
       sodipodi:nodetypes="cccccc" />
    <path
       style="fill:#7f7fff;fill-opacity:0.49803922;stroke:#000000;stroke-opacity:1"
       d="M 1152,64 L 1152,576 L 1280,576 L 1280,64 L 1152,64 z"
       id="path3182"
       sodipodi:nodetypes="ccccc" />
    <path
       style="fill:#7f7fff;fill-opacity:0.49803922;stroke:#000000;stroke-opacity:1"
       d="M 1184,448 L 1088,544 L 1088,608 L 1184,704 L 1280,704 L 1280,448 L 1184,448 z"
       id="path3184"
       sodipodi:nodetypes="ccccccc" />
    <path
       style="fill:#7f7fff;fill-opacity:0.49803922;stroke:#000000;stroke-opacity:1"
       d="M 1280,512 L 896,512 L 896,576 L 1280,576 L 1280,512 z"
       id="path3186"
       sodipodi:nodetypes="ccccc" />
    <path
       style="fill:#7f7fff;fill-opacity:0.49803922;stroke:#000000;stroke-opacity:1"
       d="M 928,560 L 1088,640 L 1216,640 L 1216,560 L 928,560 z"
       id="path3188"
       sodipodi:nodetypes="ccccc" />
    <path
       style="fill:#7f7fff;fill-opacity:0.49803922;stroke:#000000;stroke-opacity:1"
       d="M 1152,608 L 1152,832 L 1280,832 L 1280,608 L 1152,608 z"
       id="path3190"
       sodipodi:nodetypes="ccccc" />
    <path
       style="fill:#7f7fff;fill-opacity:0.49803922;stroke:#000000;stroke-opacity:1"
       d="M 1056,832 L 1216,672 L 1280,672 L 1280,896 L 1056,896 L 1056,832 z"
       id="path3192"
       sodipodi:nodetypes="cccccc" />
    <path
       style="fill:#7f7fff;fill-opacity:0.49803922;stroke:#000000;stroke-opacity:1"
       d="M 192,704 L 192,576 L 288,384 L 448,672 L 192,704 z"
       id="path3194"
       sodipodi:nodetypes="ccccc" />
    <path
       style="fill:#7f7fff;fill-opacity:0.49803922;stroke:#000000;stroke-opacity:1"
       d="M 832,384 L 648,528 L 832,664 L 832,384 z"
       id="path3200"
       sodipodi:nodetypes="cccc" />
    <path
       style="fill:#7f7fff;fill-opacity:0.49803922;stroke:#000000;stroke-opacity:1"
       d="M 800,416 L 896,416 L 800,512 L 800,416 z"
       id="path3202"
       sodipodi:nodetypes="cccc" />
    <path
       style="fill:#7f7fff;fill-opacity:0.49803922;stroke:#000000;stroke-opacity:1"
       d="M 640,256 L 256,576 L 256,192 L 640,256 z"
       id="path3204"
       sodipodi:nodetypes="cccc" />
    <path
       style="fill:#7f7fff;fill-opacity:0.49803922;stroke:#000000;stroke-opacity:1"
       d="M 256,192 L 1088,192 L 1088,448 L 320,448 L 256,192 z"
       id="path2512"
       sodipodi:nodetypes="ccccc" />
    <path
       style="fill:#7f7fff;fill-opacity:0.49803922;stroke:#000000;stroke-opacity:1"
       d="M 1088,704 L 192,704 L 192,640 L 960,640 L 1088,704 z"
       id="path3185" />
    <path
       style="fill:#7f7fff;fill-opacity:0.49803922;stroke:#000000;stroke-opacity:1"
       d="M 800,576 L 896,672 L 800,672 L 800,576 z"
       id="path3187" />
  </g>
</svg>
